<svg xmlns="http://www.w3.org/2000/svg" width="20" height="20" viewBox="0 0 20 20"><defs><style>.a{fill:#e93737;}</style></defs><title>calendar</title><path class="a" d="M17.6293,1.56h-.9361V0h-1.56V1.56H4.8364V0h-1.56V1.56H2.34A2.3428,2.3428,0,0,0,0,3.9v13.729a2.3428,2.3428,0,0,0,2.34,2.34H17.6293a2.3428,2.3428,0,0,0,2.34-2.34V3.9A2.3428,2.3428,0,0,0,17.6293,1.56Zm.78,16.0692a.781.781,0,0,1-.78.78H2.34a.781.781,0,0,1-.78-.78V7.3325H18.4094Zm0-11.8569H1.56V3.9a.781.781,0,0,1,.78-.78h.936V4.68h1.56V3.12H15.1331V4.68h1.56V3.12h.9361a.781.781,0,0,1,.78.78Z"/><rect class="a" x="2.9642" y="8.9707" width="1.5601" height="1.5601"/><rect class="a" x="6.0845" y="8.9707" width="1.5601" height="1.5601"/><rect class="a" x="9.2047" y="8.9707" width="1.5601" height="1.5601"/><rect class="a" x="12.3249" y="8.9707" width="1.5601" height="1.5601"/><rect class="a" x="15.4452" y="8.9707" width="1.5601" height="1.5601"/><rect class="a" x="2.9642" y="12.0909" width="1.5601" height="1.5601"/><rect class="a" x="6.0845" y="12.0909" width="1.5601" height="1.5601"/><rect class="a" x="9.2047" y="12.0909" width="1.5601" height="1.5601"/><rect class="a" x="12.3249" y="12.0909" width="1.5601" height="1.5601"/><rect class="a" x="2.9642" y="15.2111" width="1.5601" height="1.5601"/><rect class="a" x="6.0845" y="15.2111" width="1.5601" height="1.5601"/><rect class="a" x="9.2047" y="15.2111" width="1.5601" height="1.5601"/><rect class="a" x="12.3249" y="15.2111" width="1.5601" height="1.5601"/><rect class="a" x="15.4452" y="12.0909" width="1.5601" height="1.5601"/></svg>