<svg xmlns="http://www.w3.org/2000/svg" width="20" height="20" viewBox="0 0 20 20"><defs><style>.a{fill:#e93737;stroke:#e93737;stroke-miterlimit:10;stroke-width:0.25px;}</style></defs><title>education</title><path class="a" d="M18.6069,11.6372V6.41l.2171-.0651c.8342-.25,1.0093-.6743,1.0093-.9858s-.1752-.7354-1.0094-.9857L11.6851,2.2312a5.8767,5.8767,0,0,0-1.6225-.2045A5.8775,5.8775,0,0,0,8.44,2.2312L1.3012,4.3729c-.8344.25-1.0095.6742-1.0095.9857s.1751.7355,1.0094.9858l2.67.801V9.9578c0,.5359.3483,1.2908,2.0079,1.844a13.4156,13.4156,0,0,0,4.0835.5682,13.4156,13.4156,0,0,0,4.0835-.5682c1.66-.5532,2.008-1.3081,2.008-1.844V7.1454l1.3079-.3924v4.8842a1.8018,1.8018,0,0,0-1.2264,1.7051v2.4528a1.7989,1.7989,0,1,0,3.5978,0V13.3423a1.8016,1.8016,0,0,0-1.2264-1.7051ZM8.769,3.328a4.79,4.79,0,0,1,1.2936-.1563,4.7939,4.7939,0,0,1,1.2935.1562l6.7688,2.0307-2.7108.8133-.0046.0014-4.0534,1.216a4.7891,4.7891,0,0,1-1.2935.1563,4.7885,4.7885,0,0,1-1.2935-.1563L4.7157,6.1733,4.711,6.1719,2,5.3586Zm6.24,6.63c0,.0739-.2079.4187-1.225.7578a12.2617,12.2617,0,0,1-3.7215.5094,12.2615,12.2615,0,0,1-3.7214-.5094c-1.0171-.3391-1.225-.684-1.225-.7578V7.4888L8.44,8.486a5.8767,5.8767,0,0,0,1.6226.2046,5.8765,5.8765,0,0,0,1.6225-.2046l3.3239-.9972Zm3.6794,5.8374a.654.654,0,0,1-1.3079,0V13.3422a.654.654,0,1,1,1.3079,0Z"/></svg>