<svg xmlns="http://www.w3.org/2000/svg" width="20" height="20" viewBox="0 0 20 20"><defs><style>.a{fill:#e93737;stroke:#e93737;stroke-miterlimit:10;stroke-width:0.25px;}</style></defs><title>experience</title><path class="a" d="M17.7783,4.49H13.6006V2.807A1.4553,1.4553,0,0,0,12.147,1.3534H7.8817A1.4553,1.4553,0,0,0,6.4281,2.807V4.49H2.2505a1.9322,1.9322,0,0,0-1.93,1.93v9.8716a1.9322,1.9322,0,0,0,1.93,1.93H17.7783a1.9322,1.9322,0,0,0,1.93-1.93V6.4205a1.9322,1.9322,0,0,0-1.93-1.93ZM7.6593,2.807a.2227.2227,0,0,1,.2224-.2224H12.147a.2227.2227,0,0,1,.2224.2224V4.49h-4.71ZM1.5517,6.4205a.7.7,0,0,1,.6988-.6989H17.7783a.7.7,0,0,1,.6988.6989v.9111a1.9442,1.9442,0,0,1-1.3936,1.8573l-6.4389,1.8747a2.25,2.25,0,0,1-1.2605,0L2.9453,9.1888A1.944,1.944,0,0,1,1.5517,7.3316Zm16.2266,10.57H2.2505a.7.7,0,0,1-.6988-.6987V9.8383a3.1489,3.1489,0,0,0,1.0494.5327c7.1127,2.0709,6.7471,2.0139,7.4132,2.0139.675,0,.2923.0595,7.4133-2.0139a3.1489,3.1489,0,0,0,1.0494-.5327v6.4538a.7.7,0,0,1-.6987.6988Z"/></svg>