<svg xmlns="http://www.w3.org/2000/svg" width="20" height="20" viewBox="0 0 20 20"><defs><style>.a{fill:#e93737;stroke:#e93737;stroke-miterlimit:10;stroke-width:0.25px;}</style></defs><title>mail</title><path class="a" d="M18.0741,2.5574H1.9675A1.72,1.72,0,0,0,.25,4.2749v11.45a1.72,1.72,0,0,0,1.7175,1.7175H18.0741a1.72,1.72,0,0,0,1.7176-1.7175V4.2749A1.72,1.72,0,0,0,18.0741,2.5574Zm-.2371,1.145-7.78,7.78L2.21,3.7024ZM1.395,15.488V4.5065L6.9094,9.9736Zm.81.81L7.7225,10.78,9.656,12.6966a.5723.5723,0,0,0,.8078-.0018L12.349,10.81l5.488,5.488Zm16.4419-.81L13.1587,10l5.4879-5.488Z"/></svg>