<svg xmlns="http://www.w3.org/2000/svg" width="20" height="20" viewBox="0 0 20 20"><defs><style>.a{fill:#e93737;stroke:#e93737;stroke-miterlimit:10;stroke-width:0.25px;}</style></defs><title>phone</title><path class="a" d="M15.6831,12.4349a1.9339,1.9339,0,0,0-1.4027-.6433,2,2,0,0,0-1.4192.6391L11.55,13.7379c-.1079-.0581-.2158-.112-.3195-.166-.1494-.0747-.29-.1452-.4108-.22A14.2535,14.2535,0,0,1,7.4041,10.24a8.4088,8.4088,0,0,1-1.12-1.7678c.34-.3113.6557-.635.9627-.9462.1162-.1162.2324-.2366.3486-.3527a1.9039,1.9039,0,0,0,0-2.8717L6.4621,3.1683c-.1286-.1287-.2614-.2615-.3859-.3943-.249-.2573-.51-.5229-.78-.7719a1.9646,1.9646,0,0,0-1.39-.61,2.033,2.033,0,0,0-1.4109.61L2.4866,2.01,1.0756,3.4338a3.0361,3.0361,0,0,0-.9,1.93A7.2745,7.2745,0,0,0,.7063,8.4427a17.8676,17.8676,0,0,0,3.1746,5.2952A19.5281,19.5281,0,0,0,10.3837,18.83a10.1329,10.1329,0,0,0,3.6519,1.0789c.0871.0042.1784.0083.2614.0083a3.1272,3.1272,0,0,0,2.3945-1.0291c.0041-.0083.0124-.0125.0166-.0208a9.4416,9.4416,0,0,1,.7262-.7511c.1785-.17.361-.3486.54-.5353A2.07,2.07,0,0,0,18.6,16.1448a1.9942,1.9942,0,0,0-.6391-1.4234Zm1.4856,4.37c-.0041,0-.0041.0042,0,0-.1618.1743-.3278.332-.5063.5063a10.9308,10.9308,0,0,0-.8009.83,2,2,0,0,1-1.56.66c-.0623,0-.1287,0-.1909-.0041a9.0024,9.0024,0,0,1-3.2369-.9711,18.4345,18.4345,0,0,1-6.1252-4.7972A16.8486,16.8486,0,0,1,1.76,8.0526a5.9248,5.9248,0,0,1-.4647-2.5978,1.9053,1.9053,0,0,1,.5726-1.2325L3.2833,2.8072a.9435.9435,0,0,1,.6308-.2946.8876.8876,0,0,1,.6059.2905l.0124.0124c.2532.2366.4939.4814.747.7428.1287.1328.2615.2656.3942.4026l1.133,1.1329a.792.792,0,0,1,0,1.2864c-.12.12-.2366.2407-.3569.3569-.3486.3569-.6806.6889-1.0416,1.0126-.0083.0083-.0166.0124-.0208.0207a.8464.8464,0,0,0-.2158.942L5.184,8.75a9.0946,9.0946,0,0,0,1.34,2.187l.0041.0041a15.231,15.231,0,0,0,3.6851,3.3531,5.658,5.658,0,0,0,.51.278c.1494.0747.29.1453.4108.22.0166.0083.0332.0207.05.029a.8991.8991,0,0,0,.4109.1038.8873.8873,0,0,0,.6308-.2864l1.4192-1.4192a.9389.9389,0,0,1,.6266-.3113.8451.8451,0,0,1,.5976.303l.0083.0083,2.2866,2.2865A.8205.8205,0,0,1,17.1687,16.8046Z"/><path class="a" d="M10.77,4.9319a5.3408,5.3408,0,0,1,4.349,4.3491.5568.5568,0,0,0,.5519.4648.7507.7507,0,0,0,.0955-.0083.5608.5608,0,0,0,.4606-.6474,6.458,6.458,0,0,0-5.262-5.262.5632.5632,0,0,0-.6474.4565A.5542.5542,0,0,0,10.77,4.9319Z"/><path class="a" d="M19.7831,8.9282A10.6336,10.6336,0,0,0,11.1182.2634a.5594.5594,0,1,0-.1825,1.1038,9.4985,9.4985,0,0,1,7.7436,7.7436.5568.5568,0,0,0,.5519.4648.7313.7313,0,0,0,.0954-.0083A.55.55,0,0,0,19.7831,8.9282Z"/></svg>