<svg xmlns="http://www.w3.org/2000/svg" width="20" height="20" viewBox="0 0 20 20"><defs><style>.a{fill:#e93737;}</style></defs><title>place</title><path class="a" d="M16.6966,3.4774A7.9623,7.9623,0,0,0,10.0581,0,7.9622,7.9622,0,0,0,3.42,3.4774a8.0761,8.0761,0,0,0-.94,7.4412,6.36,6.36,0,0,0,1.1722,1.9355l5.8742,6.9a.6986.6986,0,0,0,1.0647,0l5.8725-6.8979a6.3664,6.3664,0,0,0,1.1721-1.9328A8.0779,8.0779,0,0,0,16.6966,3.4774Zm-.3711,6.9559a4.9884,4.9884,0,0,1-.9224,1.511L15.4,11.948l-5.3418,6.2741-5.345-6.278a4.9933,4.9933,0,0,1-.924-1.5154A6.6809,6.6809,0,0,1,4.57,4.2727a6.6766,6.6766,0,0,1,10.976,0A6.6818,6.6818,0,0,1,16.3255,10.4333Z"/><path class="a" d="M10.0581,4.1492a3.9161,3.9161,0,1,0,3.9161,3.9161A3.92,3.92,0,0,0,10.0581,4.1492Zm0,6.4335a2.5175,2.5175,0,1,1,2.5175-2.5175A2.52,2.52,0,0,1,10.0581,10.5827Z"/></svg>