<svg xmlns="http://www.w3.org/2000/svg" width="60" height="60" viewBox="0 0 60 60"><defs><style>.a{fill:none;stroke:#e93737;stroke-miterlimit:10;stroke-width:2px;}.b{fill:#e93737;}</style></defs><title>object_2</title><circle class="a" cx="30.0208" cy="30.0208" r="28.8125"/><path class="b" d="M44.6963,12.9461H15.3037a2.1016,2.1016,0,0,0-2.0994,2.1V44.4381a2.1016,2.1016,0,0,0,2.0994,2.0995H44.6963a2.1016,2.1016,0,0,0,2.0994-2.0995V15.0456A2.1016,2.1016,0,0,0,44.6963,12.9461Zm0,7.3481H38.3979V17.145H36.2984v4.199a1.05,1.05,0,0,0,1.05,1.05h7.3482V37.09H27.9005a1.05,1.05,0,0,0-1.05,1.05v4.199H28.95V39.19h15.746v5.2486l-29.3926.0011v-3.15h6.2984V39.19H15.3037V15.0456h7.3482v3.1492h2.0994V15.0456H28.95v7.3481H20.5524a1.05,1.05,0,0,0-1.05,1.05V34.9905h2.0994V30.7916h4.199V28.6921h-4.199V24.4932H28.95v4.1989a1.05,1.05,0,0,0,1.05,1.05H41.5471v-2.1H31.05V15.0456H44.6963Z"/></svg>