<svg xmlns="http://www.w3.org/2000/svg" width="60" height="60" viewBox="0 0 60 60"><defs><style>.a{fill:none;stroke:#e93737;stroke-miterlimit:10;stroke-width:2px;}.b{fill:#e93737;}</style></defs><title>object_3</title><circle class="a" cx="30.0208" cy="30.0208" r="28.8125"/><path class="b" d="M41.6546,30.7167,44.09,28.3193l-1.1568-3.2148L44.09,21.89l-2.4353-2.3974-.3583-3.3971-3.2325-1.1024-1.7925-2.9088-3.3927.41L30,10.6563l-2.8786,1.8372-3.3926-.41-1.7925,2.9087L18.7038,16.095l-.3584,3.3972L15.91,21.89l1.1568,3.2149L15.91,28.3193l2.4353,2.3973.3583,3.3973,1.7947.6121-3.076,9.6147,5.266-.29,4.12,3.2927L29.42,39.1823l.58.37.58-.37,2.6112,8.1615,4.12-3.2927,5.2661.29L39.5015,34.726l1.7947-.6121ZM25.7113,43.7127,23.39,41.8578l-2.9667.1631,1.95-6.095,1.3552,2.1991,3.3926-.41.4224.27ZM36.61,41.8578l-2.3211,1.8549-1.8325-5.7276.4224-.27,3.3926.41,1.3552-2.1991,1.95,6.095Zm2.6909-9.3366-2.6631.9082L35.162,35.8239l-2.7909-.3369L30,37,27.6289,35.487l-2.7909.3369-1.4756-2.3945-2.6632-.9082-.295-2.7969-2.0034-1.9722.9527-2.6476-.9527-2.6476,2.0034-1.9723.295-2.797,2.6632-.9082L24.838,14.385l2.7909.3369L30,13.2087l2.3711,1.5133,2.7909-.337L36.6376,16.78l2.6632.9082.295,2.7969,2.0034,1.9722-.9527,2.6476.9527,2.6476-2.0034,1.9723Z"/><path class="b" d="M30,16.732a8.3725,8.3725,0,1,0,8.3725,8.3725A8.382,8.382,0,0,0,30,16.732Zm0,14.5934a6.221,6.221,0,1,1,6.221-6.2209A6.2281,6.2281,0,0,1,30,31.3254Z"/></svg>