<svg xmlns="http://www.w3.org/2000/svg" width="105" height="105" viewBox="0 0 105 105"><defs><style>.a{fill:#fff;}.b{fill:#e93737;}.c{fill:#ff3434;}</style></defs><title>napravleniya_2</title><circle class="a" cx="52.5705" cy="52.5545" r="51.375"/><path class="b" d="M52.57,104.93a52.375,52.375,0,1,1,52.375-52.375A52.434,52.434,0,0,1,52.57,104.93Zm0-102.75a50.375,50.375,0,1,0,50.375,50.375A50.4321,50.4321,0,0,0,52.57,2.18Z"/><path class="c" d="M52.5092,35.7338H43.1043a.8661.8661,0,0,0,0,1.7321H52.51a.8661.8661,0,1,0,0-1.7321h-.0006Z"/><path class="c" d="M65.7449,44.022H59.6806a.8661.8661,0,0,0,0,1.7321h6.0643a.8661.8661,0,1,0,0-1.7321Z"/><path class="c" d="M52.5092,40.6743H43.1043a.8661.8661,0,0,0,0,1.7321H52.51a.8661.8661,0,1,0,0-1.7321h-.0006Z"/><path class="c" d="M52.5092,45.6151H43.1043a.8661.8661,0,0,0,0,1.7321H52.51a.8661.8661,0,1,0,0-1.7321h-.0006Z"/><path class="c" d="M52.5092,50.5556H43.1043a.866.866,0,0,0,0,1.732H52.51a.866.866,0,1,0,0-1.732h-.0006Z"/><path class="c" d="M52.5092,55.4962H43.1043a.8661.8661,0,0,0,0,1.7321H52.51a.8661.8661,0,1,0,0-1.7321h-.0006Z"/><path class="c" d="M65.7449,48.8629H59.6806a.8661.8661,0,0,0,0,1.7321h6.0643a.8661.8661,0,1,0,0-1.7321Z"/><path class="c" d="M65.7449,53.7039H59.6806a.8661.8661,0,0,0,0,1.7321h6.0643a.8661.8661,0,1,0,0-1.7321Z"/><path class="c" d="M59.6806,40.9131H62.99a.8661.8661,0,0,0,0-1.7321H59.6806a.8661.8661,0,0,0,0,1.7321Z"/><path class="c" d="M59.6806,36.0722h.5534a.8661.8661,0,1,0,0-1.7321h-.5534a.8661.8661,0,0,0,0,1.7321Z"/><path class="c" d="M52.5092,30.7932H43.1043a.8661.8661,0,0,0,0,1.7321H52.51a.8661.8661,0,1,0,0-1.7321h-.0006Z"/><path class="c" d="M71.9146,58.3126h2.8936a.8661.8661,0,1,0,0-1.7321H71.9146a.8661.8661,0,0,0,0,1.7321Z"/><path class="c" d="M71.9146,55.0458h2.8936a.866.866,0,1,0,0-1.732H71.9146a.866.866,0,1,0,0,1.732Z"/><path class="c" d="M71.9146,51.7794h2.8936a.8661.8661,0,1,0,0-1.7321H71.9146a.8661.8661,0,0,0,0,1.7321Z"/><path class="c" d="M35.6474,45.1236H30.5343a.8661.8661,0,1,0,0,1.7321h5.1131a.8661.8661,0,0,0,0-1.7321Z"/><path class="c" d="M35.6474,48.4377H30.5343a.866.866,0,1,0,0,1.732h5.1131a.866.866,0,0,0,0-1.732Z"/><path class="c" d="M35.6474,55.0656H30.5343a.8661.8661,0,1,0,0,1.7321h5.1131a.8661.8661,0,0,0,0-1.7321Z"/><path class="c" d="M35.6474,51.7516H30.5343a.8661.8661,0,1,0,0,1.7321h5.1131a.8661.8661,0,0,0,0-1.7321Z"/><path class="c" d="M27.1176,61.4472H78.0905a.8661.8661,0,0,0,.8661-.866V47.0781a.8661.8661,0,0,0-.8661-.866H76.6237V44.796a.8661.8661,0,0,0-.866-.8661h-1.374V42.2625a.8661.8661,0,0,0-1.7321,0V43.93H71.2775a.8661.8661,0,0,0-.866.8661v1.4161h-.6008v-5.83a8.117,8.117,0,1,0-8.4583-10.94H57.5672V26.1068a.8661.8661,0,0,0-.866-.8661h-1.64V21.2253a.8661.8661,0,0,0-.8661-.866h-5.703V17.744a.8661.8661,0,1,0-1.7321,0v2.6153H41.4181a.866.866,0,0,0-.866.866v4.0154h-1.64a.8661.8661,0,0,0-.866.8661V36.3151l-1.8168.894V35.3655a.8661.8661,0,0,0-.8661-.8661H33.8172v-.7136a.8661.8661,0,0,0-1.7321,0v.7136H30.25a.8661.8661,0,0,0-.866.8661v5.2121l-2.6491,1.3035a.8662.8662,0,0,0-.4835.777V60.5812a.866.866,0,0,0,.866.866ZM72.1436,45.662h2.7481v.55H72.1436Zm5.0807,2.2822V59.7151H69.8107V47.9442Zm-8.28-22.0179A6.3858,6.3858,0,1,1,62.56,32.3128v-.0013A6.3925,6.3925,0,0,1,68.9447,25.9263ZM57.5672,31.174h3.3421a8.1379,8.1379,0,0,0-.0813,1.1375,8.0508,8.0508,0,0,0,1.6091,4.852,8.166,8.166,0,0,0,5.642,3.2161V59.7151H57.5672Zm-15.283-9.0826H53.3288v3.1493H42.2842Zm-2.5059,4.8814H55.8351V59.7151H39.7783Zm-8.662,9.2587h3.381v1.83l-3.381,1.6638Zm-3.1322,6.9657,10.0625-4.9516V59.7151H27.9836Z"/><path class="c" d="M68.9572,34.8369h-.0251a.85.85,0,0,1-.8371-.8489.8661.8661,0,0,0-1.7321,0,2.5837,2.5837,0,0,0,1.7156,2.429v.3077a.8661.8661,0,1,0,1.7321,0v-.3073a2.58,2.58,0,0,0-.8661-5.0106.8495.8495,0,1,1,.85-.8494.8661.8661,0,0,0,1.7321,0,2.5837,2.5837,0,0,0-1.7156-2.429v-.23a.8661.8661,0,1,0-1.7321,0v.2292a2.58,2.58,0,0,0,.866,5.0105.8493.8493,0,0,1,.0126,1.6984Z"/><path class="c" d="M75.1988,65.1687l-.1732.0931a4.03,4.03,0,0,0-4.72-1.0984l-.0194.01-.5747.31a5.2063,5.2063,0,0,0-5.8793-.4734l-3.547,1.93h-4.73a6.7336,6.7336,0,0,1-2.9148-.6677l-.6559-.3176a11.4056,11.4056,0,0,0-11.87,1.1592c-.0189.0145-.0374.0289-.055.0451l-1.5837,1.41a5.3441,5.3441,0,0,1-1.8689,1.08l-.8555-2.806a.8661.8661,0,0,0-.8284-.6135H27.2653a.8661.8661,0,0,0-.8661.8661.85.85,0,0,0,.0064.1046L28.959,87.1323a.866.866,0,0,0,.8592.7611H41.306a.866.866,0,0,0,.8283-1.1187l-1.4757-4.84,4.5975-2.9066a2.68,2.68,0,0,1,1.9486-.25q.0268.0066.0542.0117L56.82,80.55a12.53,12.53,0,0,0,7.74-1.0929.8646.8646,0,0,0,.106-.0622L81.2037,68.04a.8661.8661,0,0,0,.2515-1.1607A4.6911,4.6911,0,0,0,75.1988,65.1687Zm-4.1011.5352a2.22,2.22,0,0,1,2.3267.4219l-6.0767,3.2784-.2141.1129a5.5863,5.5863,0,0,0-.7107-1.2941ZM64.67,65.5261l.02-.0115a3.4721,3.4721,0,0,1,3.291-.0993l-2.8568,1.5393a5.5721,5.5721,0,0,0-1.6325-.7882ZM30.5849,86.1613,28.2435,66.96h6.0389l5.8541,19.2012Zm33.153-8.23a10.7834,10.7834,0,0,1-6.6066.9147L47.5982,77.09a4.4038,4.4038,0,0,0-3.2062.4362c-.0137.0075-.0272.0156-.04.024l-4.2169,2.6659-3.0221-9.9124a7.072,7.072,0,0,0,2.5156-1.4424l1.5566-1.3856a9.6789,9.6789,0,0,1,10.046-.9629l.6559.3175a8.473,8.473,0,0,0,3.669.8407h6.36a3.8693,3.8693,0,0,1,3.7541,2.952l-4.4113-.2a27.72,27.72,0,0,0-5.0448.233.8661.8661,0,1,0,.2373,1.7158,25.9933,25.9933,0,0,1,4.7291-.2184l5.4252.2454.0391.0008a.8661.8661,0,0,0,.8661-.866c0-.0852-.0026-.17-.0064-.254l.658-.3465,7.8588-4.2395a2.9633,2.9633,0,0,1,3.4373.4443Z"/><path class="c" d="M32.5624,83.3647A2.3978,2.3978,0,1,0,34.96,80.9669,2.3978,2.3978,0,0,0,32.5624,83.3647ZM34.96,82.699a.6657.6657,0,1,1-.6657.6657h0A.6664.6664,0,0,1,34.96,82.699Z"/></svg>