<svg xmlns="http://www.w3.org/2000/svg" width="105" height="105" viewBox="0 0 105 105"><defs><style>.a{fill:#fff;}.b{fill:#e93737;}.c{fill:#ff3434;}</style></defs><title>napravleniya_1</title><circle class="a" cx="52.5705" cy="52.5545" r="51.375"/><path class="b" d="M52.57,104.93a52.375,52.375,0,1,1,52.375-52.375A52.434,52.434,0,0,1,52.57,104.93Zm0-102.75a50.375,50.375,0,1,0,50.375,50.375A50.4321,50.4321,0,0,0,52.57,2.18Z"/><path class="c" d="M47.1865,80.1427h-14.99A7.2845,7.2845,0,0,1,26.194,68.7314L35.2835,55.51H44.1l7.835,11.3964L53.5587,65.79,45.6034,54.219V50.9123l2.2539-3.0052A3.51,3.51,0,0,0,43.48,42.6618l-3.788,1.8941-3.7881-1.894a3.51,3.51,0,0,0-4.3776,5.2453L33.78,50.9124v3.3067l-9.21,13.396a9.2549,9.2549,0,0,0,7.6266,14.4982h14.99c.1435,0,.2891-.0034.4327-.01l-.09-1.9685C47.4151,80.14,47.3,80.1427,47.1865,80.1427ZM35.7505,53.54V51.5692h7.8823V53.54Zm-2.9559-7.7386a1.54,1.54,0,0,1,2.2278-1.3769l4.2286,2.1144a.9853.9853,0,0,0,.8813,0l4.2287-2.1144a1.5394,1.5394,0,0,1,1.92,2.3006l-2.1553,2.8737H35.2578l-2.1553-2.8737A1.5494,1.5494,0,0,1,32.7946,45.8012Z"/><path class="c" d="M42.6475,67.3339V67.19a2.8171,2.8171,0,0,0-1.9706-2.6834v-1.114H38.7064v1.114a2.8123,2.8123,0,0,0-.4161,5.1987l1.9213.9606a.8415.8415,0,0,1-.3762,1.5943h-.2875a.8422.8422,0,0,1-.8415-.8415V71.275H36.7358v.1438a2.8171,2.8171,0,0,0,1.9706,2.6834v1.114h1.9705v-1.114a2.8122,2.8122,0,0,0,.4161-5.1986l-1.9213-.9607a.8415.8415,0,0,1,.3762-1.5943h.2875a.8423.8423,0,0,1,.8415.8415v.1438Z"/><path class="c" d="M32.7946,68.3192h1.9706V70.29H32.7946Z"/><path class="c" d="M44.6181,68.3192h1.9706V70.29H44.6181Z"/><path class="c" d="M67.28,71.275a2.9591,2.9591,0,0,0-2.9558-2.9558H52.5005a2.9539,2.9539,0,0,0-2.7465,4.0453,2.9559,2.9559,0,0,0,0,5.7034,2.9541,2.9541,0,0,0,2.7465,4.0454H64.324A2.9559,2.9559,0,0,0,65.1,76.3057a2.9439,2.9439,0,0,0,0-2.179,2.96,2.96,0,0,0,2.18-2.8516ZM50.53,74.2309H62.3534a.9853.9853,0,1,1,0,1.9706H50.53a.9853.9853,0,0,1,0-1.9706ZM64.324,80.1427H52.5005a.9853.9853,0,1,1,0-1.9706H64.324a.9853.9853,0,0,1,0,1.9706Zm0-7.8824H52.5005a.9853.9853,0,1,1,0-1.9705H64.324a.9853.9853,0,1,1,0,1.9705Z"/><path class="c" d="M64.11,32.8252l8.096,1.7991v9.0626h1.9706v-9.853a.9854.9854,0,0,0-.7716-.9619l-1.199-.2664V28.9075H70.2357v3.26L68.2651,31.73V26.9369H66.2946v4.355l-1.7569-.39Z"/><path class="c" d="M42.6475,30.8781h3.9412v1.97H42.6475Z"/><path class="c" d="M48.5593,30.8781h3.9412v1.97H48.5593Z"/><path class="c" d="M54.471,30.8781h3.9412v1.97H54.471Z"/><path class="c" d="M42.6475,34.8192h3.9412V36.79H42.6475Z"/><path class="c" d="M48.5593,34.8192h3.9412V36.79H48.5593Z"/><path class="c" d="M54.471,34.8192h3.9412V36.79H54.471Z"/><path class="c" d="M48.5593,38.76h3.9412V40.731H48.5593Z"/><path class="c" d="M42.6475,38.76h3.9412V40.731H42.6475Z"/><path class="c" d="M54.471,38.76h3.9412V40.731H54.471Z"/><path class="c" d="M50.53,42.7016h1.9706v1.9705H50.53Z"/><path class="c" d="M54.471,42.7016h3.9412v1.9705H54.471Z"/><path class="c" d="M50.53,46.6427h1.9706v1.9706H50.53Z"/><path class="c" d="M54.471,46.6427h3.9412v1.9706H54.471Z"/><path class="c" d="M50.53,50.5839h1.9706v1.9706H50.53Z"/><path class="c" d="M54.471,50.5839h3.9412v1.9706H54.471Z"/><path class="c" d="M50.53,54.5251h1.9706v1.9706H50.53Z"/><path class="c" d="M54.471,54.5251h3.9412v1.9706H54.471Z"/><path class="c" d="M54.471,58.4662h3.9412v1.9706H54.471Z"/><path class="c" d="M71.221,50.5839h3.9412v1.9706H71.221Z"/><path class="c" d="M71.221,54.5251h3.9412v1.9706H71.221Z"/><path class="c" d="M71.221,58.4662h3.9412v1.9706H71.221Z"/><path class="c" d="M71.221,62.4074h3.9412V64.378H71.221Z"/><path class="c" d="M71.221,66.3486h3.9412v1.9706H71.221Z"/><path class="c" d="M71.221,70.29h3.9412V72.26H71.221Z"/><path class="c" d="M71.221,74.2309h3.9412v1.9706H71.221Z"/><path class="c" d="M65.3093,50.5839H69.25v1.9706H65.3093Z"/><path class="c" d="M65.3093,54.5251H69.25v1.9706H65.3093Z"/><path class="c" d="M65.3093,58.4662H69.25v1.9706H65.3093Z"/><path class="c" d="M65.3093,62.4074H69.25V64.378H65.3093Z"/><path class="c" d="M37.7211,28.9075h.9853V41.7163h1.9705V28.9075H60.3828V66.3486h1.9706V28.9075h.9853a.9854.9854,0,0,0,.9853-.9853V23.981a.9853.9853,0,0,0-.9853-.9853H37.7211a.9853.9853,0,0,0-.9853.9853v3.9412A.9853.9853,0,0,0,37.7211,28.9075Zm.9853-3.9412h23.647v1.9706H38.7064Z"/><path class="c" d="M79.1034,80.1427v-33.5a.9854.9854,0,0,0-.9853-.9853H64.324V47.628H77.1328V80.1427H68.2651v1.9706H82.0592V80.1427Z"/><path class="c" d="M68.2651,40.731h1.9706v1.9706H68.2651Z"/><path class="c" d="M64.324,40.731h1.9706v1.9706H64.324Z"/><path class="c" d="M68.2651,36.79h1.9706V38.76H68.2651Z"/><path class="c" d="M64.324,36.79h1.9706V38.76H64.324Z"/></svg>