<svg xmlns="http://www.w3.org/2000/svg" width="105" height="105" viewBox="0 0 105 105"><defs><style>.a{fill:#fff;}.b{fill:#e93737;}.c{fill:#ff3434;}</style></defs><title>napravleniya_3</title><circle class="a" cx="52.5705" cy="52.5545" r="51.375"/><path class="b" d="M52.57,104.93a52.375,52.375,0,1,1,52.375-52.375A52.434,52.434,0,0,1,52.57,104.93Zm0-102.75a50.375,50.375,0,1,0,50.375,50.375A50.4321,50.4321,0,0,0,52.57,2.18Z"/><path class="c" d="M81.2169,62.7208a.9655.9655,0,0,0,.9657-.9658V25.0571a.9654.9654,0,0,0-.9657-.9657H23.2728a.9654.9654,0,0,0-.9657.9657V61.755a.9655.9655,0,0,0,.9657.9658H38.3122L31.2884,82.0354H22.3071v1.9315H82.1826V82.0354H73.2013L66.1775,62.7208ZM24.2385,26.0228H80.2511V60.7893H24.2385ZM40.9805,74.31H63.5082l2.8093,7.7258H38.1712Zm.7031-1.9315.702-1.9315H62.104l.7021,1.9315Zm1.4041-3.8629,2.1073-5.7944h14.1l2.1072,5.7944Zm-2.7214-5.7944H43.14L36.1171,82.0354H33.3435ZM71.1472,82.0354H68.3726L61.3488,62.7208h2.7746Z"/><path class="c" d="M33.8959,43.4061a2.8972,2.8972,0,1,0-2.8972,2.8972A2.9007,2.9007,0,0,0,33.8959,43.4061Zm-3.863,0a.9658.9658,0,1,1,.9658.9657A.9668.9668,0,0,1,30.0329,43.4061Z"/><path class="c" d="M43.5532,43.4061a2.8972,2.8972,0,1,0-2.8972,2.8972A2.9007,2.9007,0,0,0,43.5532,43.4061Zm-3.8629,0a.9657.9657,0,1,1,.9657.9657A.9667.9667,0,0,1,39.69,43.4061Z"/><path class="c" d="M57.0735,43.4061a2.8972,2.8972,0,1,0,2.8972-2.8972A2.9008,2.9008,0,0,0,57.0735,43.4061Zm3.8629,0a.9657.9657,0,1,1-.9657-.9658A.9667.9667,0,0,1,60.9364,43.4061Z"/><path class="c" d="M69.6281,40.5089a2.8972,2.8972,0,1,0,2.8972,2.8972A2.9007,2.9007,0,0,0,69.6281,40.5089Zm0,3.8629a.9658.9658,0,1,1,.9657-.9657A.9667.9667,0,0,1,69.6281,44.3718Z"/><path class="c" d="M55.142,42.44h-6.36l2.2144-2.2144L49.6306,38.86l-3.863,3.863a.9646.9646,0,0,0,0,1.3655l3.863,3.863,1.3655-1.3656-2.2144-2.2144h6.36Z"/><path class="c" d="M30.3159,29.203,26.453,33.0659l1.3655,1.3656,2.2144-2.2144v6.36h1.9315v-6.36l2.2144,2.2144,1.3656-1.3656-3.863-3.8629A.9646.9646,0,0,0,30.3159,29.203Z"/><path class="c" d="M31.9644,54.5951v-6.36H30.0329v6.36l-2.2144-2.2145L26.453,53.7462l3.8629,3.8629a.9651.9651,0,0,0,1.3655,0l3.863-3.8629-1.3656-1.3656Z"/><path class="c" d="M41.5261,36.1476a17.9311,17.9311,0,0,1,25.8557-1.4332H63.8336v1.9315h5.7945a.9654.9654,0,0,0,.9657-.9657V29.8858H68.6623v3.3829A19.86,19.86,0,0,0,40.06,34.8912l-.1381.1613L41.39,36.3089Z"/><path class="c" d="M68.7579,50.6645a17.931,17.931,0,0,1-25.8556,1.4332H46.45V50.1662H40.656a.9655.9655,0,0,0-.9657.9657v5.7944h1.9314V53.5434a19.86,19.86,0,0,0,28.6022-1.6225l.1381-.1612-1.4679-1.2565Z"/></svg>