<svg xmlns="http://www.w3.org/2000/svg" width="271" height="32" viewBox="0 0 271 32"><defs><style>.a{fill:#8e483f;}.b{fill:#171919;}</style></defs><title>logo</title><path class="a" d="M119.7327,5.1087a15.697,15.697,0,0,1,22.2055,22.1922A15.697,15.697,0,1,1,119.7327,5.1087Zm.5776.5642a14.89,14.89,0,1,0,21.05,0,14.939,14.939,0,0,0-21.05,0Zm14.8978,11.8618a24.1906,24.1906,0,0,1-6.6228-1.0075c-2.31,2.74-4.2718,6.4884-4.2718,10.1423.86-.2015,1.3433-.9672,1.9881-2.0016a13.46,13.46,0,0,1,7.2273-6.1794,4.2289,4.2289,0,0,0,1.6792-.9538Zm-7.4959-1.3165a8.5275,8.5275,0,0,1-3.3987-2.19v8.06a19.8993,19.8993,0,0,1,3.3987-5.87Zm.591-.6985a21.6019,21.6019,0,0,1,5.8973-4.7555c1.4777-.7791,4.7421-2.015,4.9033-3.6942a33.6573,33.6573,0,0,0-10.0617.9135c-2.5524.6985-4.5809,1.8538-4.7286,3.6673-.0806,2.0688,2.31,3.2644,3.99,3.8689Zm.9.2821a25.3,25.3,0,0,0,7.0123.8866c.0134,1.76-.82,1.9613-2.3509,2.6061a12.6252,12.6252,0,0,0-6.8242,5.83c-1.0747,1.706-1.4911,2.4314-3.5868,2.4717V11.5837c.1881-2.27,2.4718-3.6405,5.36-4.4331a34.3322,34.3322,0,0,1,11.123-.8866c.2821,3.17-3.0092,4.0838-5.3331,5.2659a20.7307,20.7307,0,0,0-5.4,4.2719Z"/><path class="b" d="M1.9479,9.2064v6.9763h9.6037v1.9026H1.9479v8.6071H0V7.3037H12.6842V9.2064Zm12.2765,17.486V7.3037H16.127V26.6924ZM19.3886,7.3037,31.62,23.023V7.3037h1.9479V26.6924H32.0728L19.7963,10.9278V26.6924H17.8937V7.3037Zm18.5733,2.31c3.624-3.2617,8.6977-3.2617,12.7294-.906l-.906,1.54C46.2519,8.4363,41.9483,8.3,39.0491,11.29c-2.9446,3.0351-3.1711,8.5618-.0453,11.5516,2.9445,2.854,7.5652,2.7181,11.008.8607l.906,1.5856c-3.9864,2.31-9.2866,2.4009-12.9106-.68-4.3489-3.7147-4.213-11.1893-.0453-14.9945Zm38.596-2.31c2.9446,6.478,5.9344,12.9107,8.879,19.3887H83.353L80.7709,21.12H70.7142l-2.5369,5.572H66.0482c2.99-6.478,5.9344-12.9107,8.9242-19.3887ZM71.62,19.2178h8.3353l-4.1677-9.1054ZM53.953,17.1793H59.48a6.0513,6.0513,0,0,0,3.76-1.0872,3.9009,3.9009,0,0,0,0-5.7985,6.0513,6.0513,0,0,0-3.76-1.0872H53.953Zm5.4813-9.8756a7.7953,7.7953,0,0,1,5.119,1.6309,5.7352,5.7352,0,0,1,.3171,8.2447,6.6522,6.6522,0,0,1-3.7146,1.7667l4.6659,7.7464H63.4661l-4.53-7.61H53.953v7.61H52.005V7.3037Zm39.91,0H112.436V9.2064H105.46v17.486h-1.9026V9.2064H98.4834ZM87.7472,9.2064v6.9763H97.215v1.9026H87.7472v8.6071H85.7993V7.3037H98.121L97.26,9.2064Z"/><path class="a" d="M151.918,16.0212c0-6.9413,5.2593-11.35,11.6687-11.35a10.2491,10.2491,0,0,1,9.0721,4.9018L168.78,11.6788a6.2074,6.2074,0,0,0-5.1935-2.8622c-3.977,0-6.87,3.06-6.87,7.2046s2.8927,7.2046,6.87,7.2046a7.3917,7.3917,0,0,0,4.6677-1.678V18.9163h-5.7852V14.8369h10.4525v8.4218a12.1645,12.1645,0,0,1-9.335,4.145C157.1773,27.4037,151.918,22.93,151.918,16.0212Z"/><path class="a" d="M190.5744,26.9759l-4.3061-7.7967H182.85v7.7967h-4.6674V5.0336h10.2554c4.5686,0,7.3627,2.9936,7.3627,7.0728a6.296,6.296,0,0,1-4.799,6.5137l4.9306,8.3558Zm.46-14.8695a2.9778,2.9778,0,0,0-3.287-2.9607H182.85v5.9215h4.8976A2.9778,2.9778,0,0,0,191.0344,12.1064Z"/><path class="a" d="M199.8208,16.0212A11.0122,11.0122,0,0,1,211.26,4.6716c6.64,0,11.4716,4.7372,11.4716,11.35s-4.8319,11.35-11.4716,11.35A11.0123,11.0123,0,0,1,199.8208,16.0212Zm18.1113,0c0-4.1121-2.6295-7.2046-6.6726-7.2046s-6.64,3.0925-6.64,7.2046c0,4.0794,2.5969,7.2046,6.64,7.2046S217.9321,20.1006,217.9321,16.0212Z"/><path class="a" d="M227.4861,18.2252V5.0336h4.7331v13.027c0,3.06,1.7749,5.1652,5.1606,5.1652s5.1277-2.1054,5.1277-5.1652V5.0336h4.7661V18.1923c0,5.461-3.2212,9.1785-9.8938,9.1785S227.4861,23.62,227.4861,18.2252Z"/><path class="a" d="M253.382,26.9759V5.0336h10.2554c4.766,0,7.3626,3.224,7.3626,7.0728,0,3.8161-2.63,7.0728-7.3626,7.0728h-5.5881v7.7967Zm12.8519-14.8695a2.94,2.94,0,0,0-3.2211-2.9607h-4.9635v5.9215h4.9635A2.9577,2.9577,0,0,0,266.2339,12.1064Z"/></svg>